<svg width="24" height="24" fill="none" xmlns="http://www.w3.org/2000/svg"><path d="M9.165 18.327A9.162 9.162 0 01.176 7.373 9.166 9.166 0 012.685 2.68c3.572-3.573 9.383-3.573 12.955 0 3.572 3.573 3.572 9.385 0 12.958a9.15 9.15 0 01-6.475 2.69zm0-15.982a6.817 6.817 0 00-6.41 9.126 6.82 6.82 0 003.85 4.011 6.807 6.807 0 007.378-1.5c2.659-2.659 2.659-6.986 0-9.644a6.797 6.797 0 00-4.82-1.995l.002.002z" fill="#fff"/><path d="M22.828 24a1.168 1.168 0 01-.829-.343l-8.015-8.017a1.172 1.172 0 011.658-1.658l8.015 8.017A1.173 1.173 0 0122.828 24z" fill="#fff"/></svg>