<svg width="19" height="21" fill="none" xmlns="http://www.w3.org/2000/svg"><path d="M6.398 19.938l10.413-5.993a4.212 4.212 0 002.134-3.688c0-1.54-.798-2.918-2.134-3.687L6.398.577a4.23 4.23 0 00-4.27.004A4.214 4.214 0 000 4.264v11.987c0 1.536.795 2.913 2.127 3.683.67.387 1.404.58 2.14.58.731 0 1.463-.191 2.131-.576zM4.449 3.962l10.413 5.993a.33.33 0 01.177.303.33.33 0 01-.177.302L4.45 16.553a.345.345 0 01-.367 0 .33.33 0 01-.176-.302V4.264c0-.133.06-.234.176-.302a.367.367 0 01.184-.053c.061 0 .123.018.183.053z" fill="#fff"/><path d="M6.398 19.938l10.413-5.993a4.212 4.212 0 002.134-3.688c0-1.54-.798-2.918-2.134-3.687L6.398.577a4.23 4.23 0 00-4.27.004A4.214 4.214 0 000 4.264v11.987c0 1.536.795 2.913 2.127 3.683.67.387 1.404.58 2.14.58.731 0 1.463-.191 2.131-.576zM4.449 3.962l10.413 5.993a.33.33 0 01.177.303.33.33 0 01-.177.302L4.45 16.553a.345.345 0 01-.367 0 .33.33 0 01-.176-.302V4.264c0-.133.06-.234.176-.302a.367.367 0 01.184-.053c.061 0 .123.018.183.053z" stroke="#fff"/></svg>