<svg width="150" height="55" fill="none" xmlns="http://www.w3.org/2000/svg"><path d="M37.355 44.224l10.413-5.571c1.336-.715 2.134-1.997 2.134-3.428 0-1.431-.798-2.713-2.134-3.428l-10.413-5.572a4.508 4.508 0 00-4.27.004c-1.333.716-2.128 1.996-2.128 3.424v11.143c0 1.428.795 2.708 2.127 3.424a4.514 4.514 0 004.271.004z" fill="#000F93"/><path d="M25.098 42.941H7.813C3.505 42.941 0 39.683 0 35.68V7.446C0 3.441 3.505.184 7.813.184h34.374C46.495.184 50 3.44 50 7.446V25.33c0 1.003-.874 1.816-1.953 1.816-1.079 0-1.953-.813-1.953-1.816V7.446c0-2.002-1.753-3.631-3.907-3.631H7.813c-2.154 0-3.907 1.629-3.907 3.631V35.68c0 2.002 1.753 3.631 3.906 3.631h17.286c1.079 0 1.953.813 1.953 1.816 0 1.003-.874 1.815-1.953 1.815zm-13.672-9.078c0-1.003-.874-1.815-1.953-1.815-1.08 0-1.953.812-1.953 1.815s.874 1.816 1.953 1.816c1.079 0 1.953-.813 1.953-1.816zm7.812 0c0-1.003-.874-1.815-1.953-1.815-1.079 0-1.953.812-1.953 1.815s.874 1.816 1.953 1.816c1.079 0 1.953-.813 1.953-1.816zm7.813 0c0-1.003-.874-1.815-1.953-1.815-1.08 0-1.953.812-1.953 1.815s.874 1.816 1.953 1.816c1.079 0 1.953-.813 1.953-1.816zM11.426 9.262c0-1.003-.874-1.816-1.953-1.816-1.08 0-1.953.813-1.953 1.816 0 1.002.874 1.815 1.953 1.815 1.079 0 1.953-.813 1.953-1.815zm7.812 0c0-1.003-.874-1.816-1.953-1.816-1.079 0-1.953.813-1.953 1.816 0 1.002.874 1.815 1.953 1.815 1.079 0 1.953-.813 1.953-1.815zm7.813 0c0-1.003-.874-1.816-1.953-1.816-1.08 0-1.953.813-1.953 1.816 0 1.002.874 1.815 1.953 1.815 1.079 0 1.953-.813 1.953-1.815zm7.812 0c0-1.003-.874-1.816-1.953-1.816-1.079 0-1.953.813-1.953 1.816 0 1.002.874 1.815 1.953 1.815 1.079 0 1.953-.813 1.953-1.815zm7.813 0c0-1.003-.875-1.816-1.953-1.816-1.08 0-1.953.813-1.953 1.816 0 1.002.874 1.815 1.953 1.815 1.078 0 1.953-.813 1.953-1.815zM68.232 41h6.156V25.808L80.076 41h4.968l5.652-15.156V41h6.156V15.728h-7.236l-7.02 17.496-7.092-17.496h-7.272V41zm33.047 0h6.156V20.912h-6.156V41zm3.096-22.176c2.16 0 3.636-1.476 3.636-3.312 0-1.872-1.476-3.348-3.636-3.348-2.196 0-3.672 1.476-3.672 3.348 0 1.836 1.476 3.312 3.672 3.312zm13.677 12.852c0-3.456 1.692-4.464 4.608-4.464h1.692v-6.516c-2.7 0-4.896 1.44-6.3 3.564v-3.348h-6.156V41h6.156v-9.324zm29.079-10.764h-6.156V31.82c0 2.736-1.512 4.248-3.888 4.248-2.304 0-3.852-1.512-3.852-4.248V20.912h-6.12v11.736c0 5.364 3.132 8.568 7.776 8.568 2.7 0 4.86-1.224 6.084-2.952V41h6.156V20.912z" fill="#fff"/></svg>